<svg width="187" height="67" viewBox="0 0 187 67" fill="none" xmlns="http://www.w3.org/2000/svg">
<g clip-path="url(#clip0_25_213)">
<path d="M153.77 66.9944C135.45 66.9944 120.54 51.9687 120.54 33.4944C120.54 15.02 135.45 0 153.77 0C172.09 0 187 15.0256 187 33.5C187 51.9744 172.096 67 153.77 67V66.9944ZM153.77 6.40084C138.95 6.40084 126.89 18.5591 126.89 33.5C126.89 48.4409 138.95 60.5992 153.77 60.5992C168.591 60.5992 180.651 48.4409 180.651 33.5C180.651 18.5591 168.591 6.40084 153.77 6.40084Z" fill="#FFFEF6"/>
<path d="M6.34923 58.4768V0.711205C6.34923 0.321736 6.03009 0 5.64376 0H0.70547C0.319141 0 0 0.321736 0 0.711205V64.8777C0 65.2728 0.319141 65.5889 0.70547 65.5889H41.9979C42.3898 65.5889 42.7033 65.2672 42.7033 64.8777V59.9049C42.7033 59.5098 42.3842 59.1937 41.9979 59.1937H7.0547C6.66277 59.1937 6.34923 58.872 6.34923 58.4825V58.4768Z" fill="#FFFEF6"/>
<path d="M111.459 30.2375H76.4147C75.8025 30.2375 75.3062 30.7379 75.3062 31.3552V35.5208C75.3062 36.138 75.8025 36.6384 76.4147 36.6384H111.459C112.071 36.6384 112.567 36.138 112.567 35.5208V31.3552C112.567 30.7379 112.071 30.2375 111.459 30.2375Z" fill="#FFFEF6"/>
<path d="M102.388 47.1089C102.136 47.1089 101.907 47.2444 101.778 47.4589C96.6046 56.1345 86.9408 61.2879 76.7283 60.5202C68.8225 59.9219 61.6895 55.9369 56.9527 49.3837C53.6773 44.8511 51.8857 39.3591 51.8521 33.7541C51.8017 25.6486 55.1891 18.1753 61.1968 12.9598C66.639 8.23539 73.5761 5.93809 80.7372 6.47431C89.6395 7.14601 97.5005 12.1583 101.929 19.8009C102.058 20.0211 102.293 20.1622 102.545 20.1622H108.099C108.62 20.1622 108.978 19.6147 108.754 19.1349C103.631 8.25797 93.1893 0.999164 81.2131 0.0960469C71.4373 -0.64338 61.9918 2.907 55.0099 10.0416C50.178 14.9749 46.9866 21.3532 45.9172 28.1999C44.3775 38.0947 47.1545 47.8653 53.5486 55.3499C59.3379 62.1346 67.4004 66.2324 76.2524 66.9041C77.0866 66.9662 77.9153 67.0001 78.7383 67.0001C91.4088 67.0001 103.043 59.6961 108.609 48.1645C108.844 47.679 108.502 47.1146 107.965 47.1146H102.383L102.388 47.1089Z" fill="#FFFEF6"/>
</g>
<defs>
<clipPath id="clip0_25_213">
<rect width="187" height="67" fill="white"/>
</clipPath>
</defs>
</svg>
