<svg fill="none" height="119" viewBox="0 0 332 119" width="332" xmlns="http://www.w3.org/2000/svg" xmlns:xlink="http://www.w3.org/1999/xlink"><clipPath id="a"><path d="m0 0h332v119h-332z"/></clipPath><g clip-path="url(#a)" fill="#aa9180"><path d="m273.004 118.99c-32.525 0-58.997-26.6873-58.997-59.5s26.472-59.49 58.997-59.49 58.996 26.6873 58.996 59.5-26.461 59.5-58.996 59.5zm0-107.6213c-26.313 0-47.724 21.5944-47.724 48.1313s21.411 48.131 47.724 48.131c26.312 0 47.724-21.5941 47.724-48.131s-21.412-48.1313-47.724-48.1313z"/><path d="m11.2724 103.862v-102.59882c0-.691739-.5666-1.26318-1.2525-1.26318h-8.76741c-.685886 0-1.25249.571441-1.25249 1.26318v113.96782c0 .701.566604 1.263 1.25249 1.263h73.31061c.6958 0 1.2525-.572 1.2525-1.263v-8.833c0-.702-.5666-1.263-1.2525-1.263h-62.0382c-.6958 0-1.2525-.571-1.2525-1.263z"/><path d="m197.884 53.7056h-62.217c-1.087 0-1.968.8887-1.968 1.985v7.3986c0 1.0963.881 1.985 1.968 1.985h62.217c1.087 0 1.968-.8887 1.968-1.985v-7.3986c0-1.0963-.881-1.985-1.968-1.985z"/><path d="m181.78 83.6711c-.447 0-.854.2406-1.083.6216-9.185 15.4088-26.342 24.5623-44.473 23.1983-14.036-1.063-26.7-8.1404-35.11-19.7797-5.8151-8.0503-8.9961-17.8049-9.0557-27.76-.0895-14.3963 5.9245-27.6698 16.5907-36.9331 9.662-8.3912 21.978-12.4714 34.692-11.519 15.805 1.193 29.761 10.0954 37.624 23.6696.229.391.646.6416 1.094.6416h9.861c.924 0 1.56-.9724 1.163-1.8246-9.096-19.3187-27.635-32.21117-48.897-33.815209-17.356-1.313311-34.126 4.992589-46.5213 17.664509-8.5786 8.7621-14.2446 20.0907-16.1433 32.2513-2.7336 17.5743 2.1969 34.9281 13.5488 48.2216 10.2788 12.05 24.5928 19.329 40.3088 20.522 1.481.11 2.952.17 4.413.17 22.495 0 43.152-12.973 53.032-33.4542.418-.8621-.189-1.8647-1.143-1.8647h-9.91z"/></g></svg>