<svg width="280" height="44" viewBox="0 0 280 44" fill="none" xmlns="http://www.w3.org/2000/svg">
<g clip-path="url(#clip0_152_148)">
<path d="M43.8086 30.9688H37.7168V43.4198H43.8086V30.9688Z" fill="#2A2D2F"/>
<path d="M34.3448 0.690918L28.6831 15.3253H28.7386L25.6857 23.2575H24.3536L21.3146 15.3253H21.2591L15.5974 0.690918H5.71729V15.3253H11.4345V8.99619H12.8221L15.2783 15.3253H15.3199L21.3146 30.9686H27.9338L33.9701 15.3253H33.9285L36.3846 9.05147H37.7168V15.3253H43.8086V0.690918H34.3448Z" fill="#2A2D2F"/>
<path d="M11.4345 30.9688H5.71729V43.4198H11.4345V30.9688Z" fill="#2A2D2F"/>
<path d="M77.0014 38.6245H76.3631C71.1871 38.6245 67.9816 35.916 67.1213 30.9688H60.8213C61.8343 39.426 67.4959 44.0002 76.3631 44.0002H77.0014C85.9241 44.0002 91.5303 39.426 92.4877 30.9688H86.2433C85.3413 35.916 82.1774 38.6245 77.0014 38.6245Z" fill="#2A2D2F"/>
<path d="M76.3631 5.48598H77.0015C82.9268 5.48598 86.2433 9.05131 86.4514 15.3252H92.6543C92.3906 5.48598 86.618 0.110352 77.0015 0.110352H76.3631C66.6911 0.110352 60.9184 5.48598 60.6548 15.3252H66.8576C67.0658 9.05131 70.4378 5.48598 76.3631 5.48598Z" fill="#2A2D2F"/>
<path d="M117.479 38.2514H110.111V30.9688H104.019V43.4198H117.479C127.151 43.4198 132.175 39.6471 133.243 30.9688H126.943C126.138 36.0265 123.21 38.2514 117.493 38.2514H117.479Z" fill="#2A2D2F"/>
<path d="M110.097 5.85926H117.465C123.765 5.85926 126.818 8.67835 127.138 15.3253H133.34C132.91 5.11303 127.734 0.690918 117.479 0.690918H104.019V15.3253H110.111V5.85926H110.097Z" fill="#2A2D2F"/>
<path d="M144.581 5.85926H151.644V15.3253H157.777V5.85926H164.84V0.690918H144.581V5.85926Z" fill="#2A2D2F"/>
<path d="M144.581 38.2514V43.4198H164.84V38.2514H157.777V30.9688H151.644V38.2514H144.581Z" fill="#2A2D2F"/>
<path d="M194.19 5.85926V0.690918H169.461V15.3253H175.595V5.85926H194.19Z" fill="#2A2D2F"/>
<path d="M175.609 30.9688H169.461V43.4198H175.609V30.9688Z" fill="#2A2D2F"/>
<path d="M206.803 37.5605H199.795V42.715H220V37.5605H212.992V30.2778H206.803V37.5605Z" fill="#2A2D2F"/>
<path d="M220 5.15452V0H199.795V5.15452H206.803V14.6344H212.992V5.15452H220Z" fill="#2A2D2F"/>
<path d="M5.71717 15.3252H0V30.9684H5.71717V15.3252Z" fill="#2A2D2F"/>
<path d="M49.9004 15.3252H43.8086V30.9684H49.9004V15.3252Z" fill="#2A2D2F"/>
<path d="M60.5018 16.182C60.5018 15.9194 60.5018 15.6016 60.5573 15.3252H54.3545V28.2046C54.3545 29.1581 54.41 30.1254 54.521 30.9684H60.821C60.6129 30.0149 60.5018 29.0061 60.5018 27.8868V16.182Z" fill="#2A2D2F"/>
<path d="M92.918 16.182V27.8868C92.918 29.0061 92.8069 30.0149 92.6543 30.9684H98.8988C99.0098 30.1116 99.0653 29.1581 99.0653 28.2046V15.3252H92.8624C92.918 15.5878 92.918 15.9056 92.918 16.182Z" fill="#2A2D2F"/>
<path d="M116.397 15.3252H110.305V30.9684H116.397V15.3252Z" fill="#2A2D2F"/>
<path d="M133.451 15.3252C133.562 15.8089 133.562 16.334 133.562 16.8729V27.3478C133.562 28.6744 133.451 29.9043 133.243 30.9684H139.543C139.654 29.8491 139.71 28.633 139.71 27.3478V16.8729C139.71 16.3478 139.71 15.8089 139.654 15.3252H133.451Z" fill="#2A2D2F"/>
<path d="M151.644 15.3252H145.497V30.9684H151.644V15.3252Z" fill="#2A2D2F"/>
<path d="M181.742 15.3252H175.595V30.9684H181.742V25.0124H197.506V19.844H181.742V15.3252Z" fill="#2A2D2F"/>
<path d="M219.195 14.6343H212.992V30.2775H219.195V14.6343Z" fill="#2A2D2F"/>
</g>
<path d="M250.755 20.4741L253.612 30.8251H254.343L257.167 20.4741H264.741V43.3624H259.725V27.2723H258.894L256.17 37.6574H250.921L248.13 27.2723H247.366V43.3624H242.616V20.4741H250.755Z" fill="#2A2D2F"/>
<path d="M277.105 20.4741V38.8872H280V43.3624H268.556V38.8872H271.791V24.9493L268.556 27.3064V22.8313L271.791 20.4741H277.105Z" fill="#2A2D2F"/>
<defs>
<clipPath id="clip0_152_148">
<rect width="220" height="44" fill="white"/>
</clipPath>
</defs>
</svg>
