<svg width="284" height="44" viewBox="0 0 284 44" fill="none" xmlns="http://www.w3.org/2000/svg">
<path d="M254.139 21L256.996 31.351H257.727L260.551 21H268.125V43.8883H263.109V27.7982H262.278L259.554 38.1833H254.305L251.515 27.7982H250.751V43.8883H246V21H254.139Z" fill="#FFFEF6"/>
<path d="M280.489 21V39.4131H283.384V43.8883H271.94V39.4131H275.176V25.4752L271.94 27.8323V23.3572L275.176 21H280.489Z" fill="#FFFEF6"/>
<g clip-path="url(#clip0_80_33)">
<path d="M43.8086 30.9685H37.7168V43.4195H43.8086V30.9685Z" fill="#FFFEF6"/>
<path d="M34.3448 0.690918L28.6831 15.3253H28.7386L25.6857 23.2575H24.3536L21.3146 15.3253H21.2591L15.5974 0.690918H5.71729V15.3253H11.4345V8.99619H12.8221L15.2783 15.3253H15.3199L21.3146 30.9686H27.9338L33.9701 15.3253H33.9285L36.3846 9.05147H37.7168V15.3253H43.8086V0.690918H34.3448Z" fill="#FFFEF6"/>
<path d="M11.4345 30.9685H5.71729V43.4195H11.4345V30.9685Z" fill="#FFFEF6"/>
<path d="M77.0014 38.6243H76.3631C71.1871 38.6243 67.9816 35.9157 67.1213 30.9685H60.8213C61.8343 39.4258 67.4959 43.9999 76.3631 43.9999H77.0014C85.9241 43.9999 91.5303 39.4258 92.4877 30.9685H86.2433C85.3413 35.9157 82.1774 38.6243 77.0014 38.6243Z" fill="#FFFEF6"/>
<path d="M76.3631 5.48622H77.0015C82.9268 5.48622 86.2433 9.05155 86.4514 15.3254H92.6543C92.3906 5.48622 86.618 0.110596 77.0015 0.110596H76.3631C66.6911 0.110596 60.9184 5.48622 60.6548 15.3254H66.8576C67.0658 9.05155 70.4378 5.48622 76.3631 5.48622Z" fill="#FFFEF6"/>
<path d="M117.479 38.2512H110.111V30.9685H104.019V43.4195H117.479C127.151 43.4195 132.175 39.6469 133.243 30.9685H126.943C126.138 36.0263 123.21 38.2512 117.493 38.2512H117.479Z" fill="#FFFEF6"/>
<path d="M110.097 5.85926H117.465C123.765 5.85926 126.818 8.67836 127.138 15.3253H133.34C132.91 5.11303 127.734 0.690918 117.479 0.690918H104.019V15.3253H110.111V5.85926H110.097Z" fill="#FFFEF6"/>
<path d="M144.581 5.85926H151.644V15.3253H157.777V5.85926H164.84V0.690918H144.581V5.85926Z" fill="#FFFEF6"/>
<path d="M144.581 38.2512V43.4195H164.84V38.2512H157.777V30.9685H151.644V38.2512H144.581Z" fill="#FFFEF6"/>
<path d="M194.19 5.85926V0.690918H169.461V15.3253H175.595V5.85926H194.19Z" fill="#FFFEF6"/>
<path d="M175.609 30.9685H169.461V43.4195H175.609V30.9685Z" fill="#FFFEF6"/>
<path d="M206.803 37.5603H199.795V42.7148H220V37.5603H212.992V30.2776H206.803V37.5603Z" fill="#FFFEF6"/>
<path d="M220 5.15452V0H199.795V5.15452H206.803V14.6344H212.992V5.15452H220Z" fill="#FFFEF6"/>
<path d="M5.71717 15.3254H0V30.9687H5.71717V15.3254Z" fill="#FFFEF6"/>
<path d="M49.9004 15.3254H43.8086V30.9687H49.9004V15.3254Z" fill="#FFFEF6"/>
<path d="M60.5018 16.1822C60.5018 15.9197 60.5018 15.6018 60.5573 15.3254H54.3545V28.2048C54.3545 29.1584 54.41 30.1257 54.521 30.9687H60.821C60.6129 30.0151 60.5018 29.0063 60.5018 27.887V16.1822Z" fill="#FFFEF6"/>
<path d="M92.918 16.1822V27.887C92.918 29.0063 92.8069 30.0151 92.6543 30.9687H98.8988C99.0098 30.1119 99.0653 29.1584 99.0653 28.2048V15.3254H92.8624C92.918 15.588 92.918 15.9058 92.918 16.1822Z" fill="#FFFEF6"/>
<path d="M116.397 15.3254H110.305V30.9687H116.397V15.3254Z" fill="#FFFEF6"/>
<path d="M133.451 15.3254C133.562 15.8091 133.562 16.3342 133.562 16.8732V27.3481C133.562 28.6747 133.451 29.9046 133.243 30.9687H139.543C139.654 29.8493 139.71 28.6332 139.71 27.3481V16.8732C139.71 16.3481 139.71 15.8091 139.654 15.3254H133.451Z" fill="#FFFEF6"/>
<path d="M151.644 15.3254H145.497V30.9687H151.644V15.3254Z" fill="#FFFEF6"/>
<path d="M181.742 15.3254H175.595V30.9687H181.742V25.0126H197.506V19.8443H181.742V15.3254Z" fill="#FFFEF6"/>
<path d="M219.195 14.6345H212.992V30.2777H219.195V14.6345Z" fill="#FFFEF6"/>
</g>
<defs>
<clipPath id="clip0_80_33">
<rect width="220" height="44" fill="white"/>
</clipPath>
</defs>
</svg>
