<?xml version="1.0" encoding="UTF-8"?>
<svg id="Layer_1" data-name="Layer 1" xmlns="http://www.w3.org/2000/svg" viewBox="0 0 1879.5 582.75">
  <defs>
    <style>
      .cls-1 {
        font-family: DavisSans-Regular, 'Davis Sans';
        font-size: 127.56px;
      }

      .cls-1, .cls-2 {
        fill: #fffef7;
      }

      .cls-3 {
        letter-spacing: 0em;
      }

      .cls-4 {
        letter-spacing: .01em;
      }

      .cls-5 {
        letter-spacing: 0em;
      }

      .cls-6 {
        letter-spacing: 0em;
      }

      .cls-7 {
        letter-spacing: -.02em;
      }

      .cls-2 {
        stroke-width: 0px;
      }
    </style>
  </defs>
  <g>
    <path class="cls-2" d="M408.92,343.55v9.7c-.91.04-1.8.13-2.69.13-28.08,0-56.15.03-84.23-.06-1.47,0-3.15-.62-4.36-1.48-11.11-7.87-20.44-17.66-29.57-27.64-17.08-18.66-32.32-38.83-48.03-58.61-12.88-16.22-26.52-31.77-41.19-46.44-6.65-6.65-14.44-9.72-23.64-9.76-5.32-.03-10.64,0-16.28,0-.05.97-.13,1.86-.13,2.75,0,27.04-.08,54.08.02,81.13.06,16.81.35,33.62.64,50.42.15,8.52.52,17.05.82,25.57.48,13.71,7.9,22.25,21.5,24.23,5.67.83,11.43,1.36,17.15,1.36,387.41.06,774.82.04,1162.23.12,16.98,0,33.94,1.21,50.77,3.69,1.13.17,2.22.59,3.32.9.02.29.04.58.06.87-2.63.51-5.24,1.22-7.89,1.51-17.99,1.91-36.02,3.08-54.13,3.06-40-.04-80,.03-120,.14-33.99.1-67.98.31-101.97.5-24.86.14-49.71.32-74.57.5-26.29.2-52.58.42-78.88.64-19.19.16-38.38.33-57.57.51-18.09.16-36.18.33-54.27.51-17.58.17-35.17.34-52.75.51-17.16.17-34.32.34-51.48.51-17.16.17-34.32.34-51.48.51-17.41.17-34.83.34-52.24.51-17.84.17-35.67.34-53.51.51-18.77.17-37.53.34-56.3.51-19.87.17-39.73.35-59.6.5-22.57.18-45.14.35-67.72.51-19.61.14-39.23.27-58.84.37-36.1.18-72.21.35-108.31.51-15.14.07-30.27.09-45.41.13-29,.08-58.01.29-87.01.16-15.63-.07-31.26-.74-46.65-3.9-5.44-1.12-10.82-2.55-16.25-3.84v-10.19c1.22-.06,2.36-.17,3.51-.17,9.38,0,18.77.19,28.02-1.82,12-2.6,18.75-10.11,19.2-22.4.73-20.08,1.43-40.17,1.53-60.27.3-60.67.39-121.34.35-182.01,0-13.16-.88-26.32-1.41-39.48-.07-1.84-.39-3.7-.77-5.51-2.38-11.19-8.36-16.42-20.75-17.5-7.98-.69-16.02-.77-24.04-1.11-.99-.04-1.99,0-3.15,0v-10.07c4.95-.27,9.81-.59,14.67-.8,20.43-.88,40.85-1.83,61.29-2.54,13.34-.46,26.71-.89,40.05-.71,16.04.21,32.11.54,48.09,1.78,19.77,1.54,39.17,5.29,57.26,13.97,13.22,6.35,24.9,14.73,33.48,26.8,15.29,21.51,14.34,51.47-2.15,72.82-10.73,13.89-24.95,22.77-41.27,28.63-12.31,4.41-25.05,6.87-37.97,8.5-.33.04-.65.11-1.11.18.19.28.27.53.43.62,12.56,6.89,22.88,16.59,32.32,27.07,16.23,18.01,31.85,36.57,47.82,54.81,12.42,14.19,25.12,28.14,40.27,39.55,13.87,10.45,29.67,15.84,46.86,17.45,2.52.24,5.04.43,7.92.68ZM158.79,130.89c0,21.8.04,43.6-.05,65.41-.01,2.49.71,3.14,3.15,3.02,12.15-.58,24.31-.97,36.46-1.48,10.75-.46,21.35-1.9,31.78-4.58,19.11-4.92,33.07-15.9,39.06-35.03,6.35-20.29,5.79-40.69-2.39-60.48-6.03-14.57-16.48-24.66-31.84-29.38-9.41-2.89-19.02-4.63-28.8-5.56-14.75-1.4-29.53-1.43-44.32-.58-2.4.14-3.12.82-3.11,3.25.09,21.8.05,43.6.05,65.41Z"/>
    <path class="cls-2" d="M736.89,203.44c1.97-2.1,3.53-3.81,5.13-5.47,13.82-14.34,29.78-25.16,49.45-29.74,14.9-3.47,29.86-3.51,44.67.35,18.38,4.79,30.68,16.38,37.04,34.26.36,1.01.75,2.01,1.28,3.45,3.93-3.98,7.45-7.87,11.3-11.39,13.58-12.42,28.66-22.47,46.84-26.64,21.51-4.94,42.35-3.34,61.47,8.81,8.48,5.39,15.45,12.22,17.49,22.59,1.02,5.2,2,10.51,2.09,15.79.43,26.18.5,52.37.81,78.56.12,10.47.42,20.94.82,31.4.37,9.62,4.51,14.67,13.99,16.44,5.94,1.11,12.04,1.37,18.28,2.03v9.32h-99.48v-9.46c5.01-.47,9.95-.92,14.88-1.4.58-.06,1.16-.2,1.74-.33,9.76-2.32,13.67-6.95,14.16-16.97.3-5.99.6-11.98.63-17.97.14-24.67.32-49.34.17-74.01-.05-8.42-.72-16.86-1.62-25.24-1.18-10.98-7.95-18.13-17.6-22.41-13.43-5.95-27.16-5.31-40.71-.17-13.65,5.18-24.62,14.26-34.6,24.64-2.75,2.86-5.41,5.83-7.88,8.92-.85,1.07-1.45,2.68-1.45,4.04-.06,28.82-.07,57.63.05,86.45.02,6.24.35,12.49.91,18.71.59,6.62,4.38,11.26,10.66,13.12,4.48,1.32,9.28,1.57,13.94,2.24.98.14,2,.02,3.19.02v9.83h-96.05v-9.6c3.89-.24,7.83-.4,11.75-.77,2.43-.23,4.87-.62,7.22-1.25,8.15-2.17,11.97-7.05,12.37-16.05.42-9.61.78-19.24.85-28.86.13-19.18.18-38.37-.02-57.55-.1-9.19-.59-18.4-1.36-27.56-1.19-14.18-9.75-22.85-22.46-27.58-13.23-4.92-26.42-3.47-39.29,1.82-12.96,5.33-23.46,14.13-33.81,23.33-5.4,4.8-7.27,9.92-7.14,17.1.45,24.84.09,49.69.22,74.53.04,8.86.48,17.72.93,26.57.34,6.79,3.88,11.69,10.37,13.49,5.22,1.46,10.77,1.76,16.19,2.52,1.06.15,2.15.02,3.38.02v9.87h-97.46v-9.65c3.85-.24,7.72-.29,11.53-.79,3.24-.42,6.55-1,9.6-2.13,5.69-2.11,9.21-6.3,9.53-12.52.49-9.61,1.02-19.23,1.06-28.85.09-28.39-.01-56.78-.14-85.17-.02-4.55-.43-9.1-.86-13.64-.57-5.99-3.93-10.26-9.53-11.91-5.04-1.48-10.41-1.87-15.64-2.66-1.81-.27-3.66-.27-5.73-.41,0-2.98-.11-5.76.1-8.51.04-.54,1.27-1.32,2.03-1.44,12.86-1.93,25.75-3.62,38.58-5.69,5.15-.83,10.17-2.41,15.24-3.69,3.35-.85,3.84-.67,5.12,2.51,4.07,10.18,5.48,20.84,5.69,31.71.02.81.08,1.61.14,3.04Z"/>
    <path class="cls-2" d="M1427.74,343.37v9.81h-100.58v-9.59c4.04-.24,8.17-.26,12.23-.81,3.57-.48,7.19-1.18,10.55-2.44,5.56-2.08,8.63-6.43,9-12.36.48-7.66.99-15.34,1.01-23.01.1-29.06.05-58.13-.06-87.19-.02-5.31-.45-10.62-.9-15.92-.6-7.08-4.55-12.18-11.52-13.69-6.56-1.42-13.32-1.92-20.29-2.86v-9.31c4.65-.62,9.36-1.02,13.98-1.91,12.75-2.45,25.46-5.17,38.21-7.65,2.54-.49,5.19-.57,7.78-.49.7.02,1.8,1.22,1.98,2.04,1.66,7.39,3.31,14.78,4.62,22.24.69,3.94.68,8,.99,12.01.28.18.56.37.84.55,2.14-2.36,4.12-4.89,6.44-7.06,14.61-13.71,31.16-24.04,51.08-27.99,17.49-3.46,34.88-3.06,51.53,3.9,11.71,4.89,21.66,12.3,25.77,24.93,2.14,6.58,3.22,13.63,3.84,20.56.78,8.64.74,17.37.8,26.07.2,25.51.26,51.02.42,76.53.02,2.7.26,5.4.53,8.08.68,6.9,4.43,11.65,11.04,13.28,5.44,1.34,11.15,1.58,16.75,2.25,1.23.15,2.5.02,3.91.02v9.85h-102.01v-9.61c5-.24,9.87-.42,14.74-.75,1.92-.13,3.85-.52,5.73-.98,8.11-1.98,12.9-7.71,13.3-16.01.28-5.9.5-11.81.51-17.72.05-26.95.12-53.91-.05-80.86-.04-6.9-.64-13.84-1.53-20.69-1.51-11.56-9.01-18.67-19.07-23.14-12.45-5.53-25.37-4.92-38.18-1.2-14.89,4.33-26.8,13.34-37.15,24.56-3.2,3.47-7.07,6.85-8.76,11.03-1.51,3.72-.48,8.48-.48,12.78.03,28.05.06,56.1.18,84.15.02,4.46.45,8.93.89,13.38.64,6.48,4.22,11.06,10.39,12.66,5.58,1.45,11.46,1.78,17.21,2.52,1.32.17,2.69.03,4.33.03Z"/>
    <path class="cls-2" d="M1288.8,320.65h8.5c.32,14.6-6.79,29.48-21.86,34.54-11.53,3.87-23.28,4.2-34.88.47-12.7-4.09-19.03-13.87-22.07-26.25-.2-.8-.4-1.59-.67-2.68-1.04.64-1.81,1.11-2.58,1.59-15.36,9.58-31.16,18.31-48.35,24.24-11.44,3.95-23.14,6.27-35.32,5.33-11.76-.92-22.45-4.69-31.62-12.24-11.62-9.57-15.34-25.26-9.63-40.06,4.29-11.11,12.37-19,21.91-25.59,16.07-11.1,33.55-19.56,51.64-26.72,17.1-6.77,34.42-12.99,51.67-19.37,1.79-.66,2.51-1.46,2.41-3.41-.4-8.26-.62-16.53-.98-24.79-.56-12.57-8.05-20.13-18.67-25.25-8-3.87-16.62-4.99-25.39-5.07-9.42-.08-18.76.61-27.54,4.51-7.96,3.53-12.77,9.45-14.62,18.12-1.01,4.71-2.62,9.5-5.02,13.65-4.68,8.08-16.37,10.78-24.59,6.32-4.35-2.36-6.43-7.77-5.28-13.68,1.29-6.63,5.38-11.5,9.94-16.13,11.43-11.61,25.6-17.65,41.42-20.13,18.91-2.97,37.86-3.21,56.79-.12,11.18,1.82,21.36,6.02,30.7,12.48,10.13,7.01,15.61,16.66,16.95,28.69.71,6.36,1.18,12.79,1.22,19.19.14,24.59-.09,49.18.13,73.77.08,9.1.83,18.2,1.63,27.27.5,5.68,2.73,10.58,8.99,12.11,6.87,1.67,13.1.5,18.14-4.8,3.23-3.4,4.87-7.65,6.09-12.09.33-1.21.59-2.45.94-3.89ZM1217.91,243.48c-.91.25-1.56.38-2.18.61-9.51,3.46-19.06,6.81-28.5,10.44-14.55,5.6-28.59,12.22-40.64,22.35-11.8,9.93-19.39,21.89-18.22,38.13.92,12.7,9.24,23.36,21.04,26.19,9.06,2.17,17.79.37,26.33-2.65,14.96-5.29,28.16-13.77,40.92-22.99.79-.57,1.2-2.13,1.2-3.22.07-22.04.05-44.09.05-66.14v-2.71Z"/>
    <path class="cls-2" d="M628.84,261.01c-.03,22.85-4.55,41.89-16.88,58.48-12.05,16.21-28.01,27.46-46.94,33.97-32.7,11.24-65.19,10.45-96.51-4.91-20.13-9.87-35.88-24.62-44.98-45.59-6.48-14.94-8.44-30.65-7.48-46.81,1.39-23.2,10.5-42.89,26.97-59.2,15.96-15.81,35.05-25.74,57.22-29.35,22.23-3.62,44.25-2.6,65.32,5.93,27.96,11.32,48.4,30.42,58.65,59.33,3.5,9.88,4.79,20.17,4.64,28.14ZM587.69,264.24c0-5.23.23-10.48-.05-15.69-.61-11.41-2.38-22.65-6.1-33.51-6.32-18.45-18.5-30.99-37.44-36.34-14.37-4.06-28.93-4.06-43.32-.12-15.16,4.15-26.87,13.07-33.86,27.27-2.92,5.92-5.11,12.34-6.67,18.76-4.06,16.7-4.52,33.73-3.72,50.83.5,10.74,1.83,21.34,4.66,31.74,5.21,19.14,16.57,32.81,35.53,39.53,12.01,4.25,24.46,4.88,37.01,3.26,23.83-3.08,40.61-15.13,48.28-38.47,5.04-15.35,6.07-31.25,5.68-47.25Z"/>
    <path class="cls-2" d="M1820.25,259.63c-.1,26.21-5.56,46.9-20.44,64.31-12.48,14.6-28.11,24.82-46.36,30.57-30.51,9.61-60.86,9.01-90.2-4.34-21.9-9.96-39.03-25.32-48.66-47.93-6.24-14.65-7.98-30.03-7.22-45.84,2.28-47.36,41.02-79.45,77.5-87.41,26.7-5.83,53.02-4.63,78.03,7.1,24.68,11.58,42.89,29.68,52.33,55.72,3.69,10.18,5.09,20.78,5.02,27.82ZM1779.12,264.12c0-5.06.24-10.14-.05-15.19-.65-11.49-2.37-22.82-6.09-33.77-5.91-17.38-17.12-29.66-34.71-35.63-10.89-3.7-22.15-4.33-33.55-3.26-26.31,2.47-44.06,17.01-51.62,42.32-3.87,12.97-5.15,26.32-5.45,39.76-.37,16.5.54,32.91,4.95,48.95,5.8,21.11,18.94,35.04,40.22,40.85,10.64,2.91,21.49,3,32.43,1.85,24.05-2.52,41.84-17.15,48.74-40.31,4.43-14.88,5.5-30.16,5.13-45.57Z"/>
    <path class="cls-2" d="M1458.43,397.59h19.48v3.87h-19.52v11.82h21.67v3.78h-27.54v-33.47h26.73v3.61h-20.82v10.39Z"/>
    <path class="cls-2" d="M1676.01,417.19c3.73-4.51,7.12-8.62,10.44-12.65-3.1-.17-6.08.02-8.9-.57-5.37-1.12-8.8-5.18-8.96-9.93-.16-4.74,3.02-8.94,8.2-10.64,4.92-1.61,9.83-1.52,14.55.68,6.24,2.91,8.55,9.44,4.81,15.2-3.9,5.99-8.52,11.52-12.86,17.22-.26.34-.82.63-1.25.65-1.82.07-3.65.03-6.03.03ZM1683.52,400.66c.75-.13,1.84-.23,2.89-.51,3.51-.94,5.66-3.44,5.71-6.52.05-2.94-1.92-5.72-5.24-6.64-1.88-.52-4.02-.67-5.93-.35-4.22.7-6.65,3.57-6.54,7.1.11,3.37,2.71,5.97,6.75,6.71.66.12,1.34.12,2.36.2Z"/>
    <path class="cls-2" d="M1734.41,409.52h-19.15c-.54-2.4-.27-4.27,1.35-6.18,4.65-5.46,9.24-10.99,13.55-16.71,1.89-2.51,3.89-3.73,6.97-3.23.81.13,1.65.02,2.73.02v22.16c2.12.09,4.01.18,6.01.27v3.69h-5.89v7.48h-5.58v-7.51ZM1734.39,389.4c-.17-.08-.34-.15-.51-.23-4.23,5.36-8.46,10.72-12.89,16.34h13.4v-16.11Z"/>
    <path class="cls-2" d="M1791.61,383.6c-.64,2.19-.87,4.29-1.81,6-4.56,8.27-9.41,16.37-13.93,24.66-1.27,2.32-2.7,3.4-5.3,2.96-.82-.14-1.68-.02-3.02-.02,5.9-10.03,11.62-19.76,17.56-29.86h-20.71c-.06-1.31-.12-2.43-.18-3.74h27.39Z"/>
    <path class="cls-2" d="M1497.1,413.3c1.24-.87,2.45-1.73,3.71-2.62,3.04,2.58,6.4,3.87,10.17,2.73,1.22-.37,2.12-1.8,3.17-2.75-.96-.93-1.77-2.28-2.92-2.69-2.44-.89-5.07-1.22-7.59-1.91-3.41-.93-5.04-2.64-5.12-5.13-.09-2.81,1.53-4.82,4.86-5.99,5.75-2.04,12.37-.75,15.69,3.05-2.4,2.71-2.65,2.73-5.64,1.12-2.51-1.35-5.2-1.61-7.81-.45-.82.37-1.71,1.53-1.77,2.38-.05.65,1.04,1.75,1.83,2.03,2.06.72,4.24,1.05,6.36,1.61,1.38.36,2.8.7,4.08,1.3,1.9.89,3.41,2.19,3.5,4.55.08,2.34-.99,4.03-2.89,5.28-5.29,3.48-15.07,2.3-19.64-2.51Z"/>
    <path class="cls-2" d="M1634.55,389.03c-2.97,1.95-5.47,3.59-8.21,5.4-1.02-1.09-1.99-2.13-3.11-3.33,3.87-2.5,7.5-5.13,11.4-7.24,1.46-.79,3.56-.39,5.53-.54v33.74h-5.61v-28.03Z"/>
    <path class="cls-2" d="M1552,394.52v3.91h-7.35c0,4.35-.1,8.46.05,12.55.06,1.74,1.4,2.64,3.1,2.76,1.25.09,2.52.02,4.05.02.08,1.07.16,2.05.26,3.31-3.44.94-6.8,1.2-10.04-.48-2.27-1.18-2.96-3.32-2.96-5.75,0-4.03,0-8.06,0-12.35h-5.32v-3.9h5.24v-6.42h5.48v6.34h7.49Z"/>
    <path class="cls-2" d="M1573.24,417.71c-2.23.02-4.06-1.3-4.06-2.93,0-1.66,1.78-2.99,4.03-2.95,1.89.04,3.59.47,3.8,2.77.16,1.81-1.45,3.08-3.77,3.11Z"/>
  </g>
  <text class="cls-1" transform="translate(42.01 550.61)"><tspan class="cls-6" x="0" y="0">C</tspan><tspan class="cls-3" x="92.99" y="0">o</tspan><tspan class="cls-5" x="162.13" y="0">ff</tspan><tspan class="cls-4" x="234.96" y="0">ee Grinde</tspan><tspan class="cls-7" x="776.19" y="0">r</tspan></text>
</svg>